<?xml version="1.0" standalone="no"?><svg xmlns:xlink="http://www.w3.org/1999/xlink" xmlns="http://www.w3.org/2000/svg" viewBox="0 0 1300 541.6741277428064" preserveAspectRatio="xMaxYMax slice"><g transform="scale(2.238322841912423)"><rect x="0" y="0" width="580.8" height="242" fill="#ffffff"/><rect x="48.4" y="0" width="48.4" height="48.4" fill="#ffffff"/><rect x="96.8" y="0" width="48.4" height="48.4" fill="#ffffff"/><g transform="translate(96.8,24.2) scale(1.21) rotate(0)"><path fill-rule="evenodd" clip-rule="evenodd" d="M10 20C15.5228 20 20 15.5228 20 10C20 4.47715 15.5228 0 10 0C4.47715 0 0 4.47715 0 10C0 15.5228 4.47715 20 10 20ZM10 17C13.866 17 17 13.866 17 10C17 6.13401 13.866 3 10 3C6.13401 3 3 6.13401 3 10C3 13.866 6.13401 17 10 17Z" fill="#aab3f6"/></g><g transform="translate(121,24.2) scale(1.21) rotate(0)"><path fill-rule="evenodd" clip-rule="evenodd" d="M10 20C15.5228 20 20 15.5228 20 10C20 4.47715 15.5228 0 10 0C4.47715 0 0 4.47715 0 10C0 15.5228 4.47715 20 10 20ZM10 17C13.866 17 17 13.866 17 10C17 6.13401 13.866 3 10 3C6.13401 3 3 6.13401 3 10C3 13.866 6.13401 17 10 17Z" fill="#e1e7ff"/></g><rect x="290.4" y="0" width="48.4" height="48.4" fill="#ffffff"/><g transform="translate(290.4,0) scale(1.21) rotate(0)"><path fill-rule="evenodd" clip-rule="evenodd" d="M10 20C15.5228 20 20 15.5228 20 10C20 4.47715 15.5228 0 10 0C4.47715 0 0 4.47715 0 10C0 15.5228 4.47715 20 10 20ZM10 17C13.866 17 17 13.866 17 10C17 6.13401 13.866 3 10 3C6.13401 3 3 6.13401 3 10C3 13.866 6.13401 17 10 17Z" fill="#9ba6f5"/></g><rect x="484" y="0" width="48.4" height="48.4" fill="#ffffff"/><g transform="translate(508.2,24.2) scale(1.21) rotate(0)"><path fill-rule="evenodd" clip-rule="evenodd" d="M10 20C15.5228 20 20 15.5228 20 10C20 4.47715 15.5228 0 10 0C4.47715 0 0 4.47715 0 10C0 15.5228 4.47715 20 10 20ZM10 17C13.866 17 17 13.866 17 10C17 6.13401 13.866 3 10 3C6.13401 3 3 6.13401 3 10C3 13.866 6.13401 17 10 17Z" fill="#6071ee"/></g><rect x="532.4" y="0" width="48.4" height="48.4" fill="#ffffff"/><circle cx="544.5" cy="12.1" r="12.1" fill="#8996f3"/><g transform="translate(532.4,24.2) scale(1.21) rotate(0)"><path fill-rule="evenodd" clip-rule="evenodd" d="M10 20C15.5228 20 20 15.5228 20 10C20 4.47715 15.5228 0 10 0C4.47715 0 0 4.47715 0 10C0 15.5228 4.47715 20 10 20ZM10 17C13.866 17 17 13.866 17 10C17 6.13401 13.866 3 10 3C6.13401 3 3 6.13401 3 10C3 13.866 6.13401 17 10 17Z" fill="#91a9fe"/></g><rect x="96.8" y="48.4" width="48.4" height="48.4" fill="#ffffff"/><rect x="387.2" y="48.4" width="48.4" height="48.4" fill="#ffffff"/><rect x="48.4" y="96.8" width="48.4" height="48.4" fill="#ffffff"/><circle cx="60.5" cy="108.89999999999999" r="12.1" fill="#fefeff"/><g transform="translate(72.6,121) scale(1.21) rotate(0)"><path fill-rule="evenodd" clip-rule="evenodd" d="M10 20C15.5228 20 20 15.5228 20 10C20 4.47715 15.5228 0 10 0C4.47715 0 0 4.47715 0 10C0 15.5228 4.47715 20 10 20ZM10 17C13.866 17 17 13.866 17 10C17 6.13401 13.866 3 10 3C6.13401 3 3 6.13401 3 10C3 13.866 6.13401 17 10 17Z" fill="#6373ef"/></g><rect x="193.6" y="96.8" width="48.4" height="48.4" fill="#ffffff"/><circle cx="229.9" cy="108.89999999999999" r="12.1" fill="#8c98f3"/><g transform="translate(217.8,121) scale(1.21) rotate(0)"><path fill-rule="evenodd" clip-rule="evenodd" d="M10 20C15.5228 20 20 15.5228 20 10C20 4.47715 15.5228 0 10 0C4.47715 0 0 4.47715 0 10C0 15.5228 4.47715 20 10 20ZM10 17C13.866 17 17 13.866 17 10C17 6.13401 13.866 3 10 3C6.13401 3 3 6.13401 3 10C3 13.866 6.13401 17 10 17Z" fill="#a4b8fe"/></g><rect x="145.2" y="145.2" width="48.4" height="48.4" fill="#ffffff"/><g transform="translate(169.4,145.2) scale(1.21) rotate(0)"><path fill-rule="evenodd" clip-rule="evenodd" d="M10 20C15.5228 20 20 15.5228 20 10C20 4.47715 15.5228 0 10 0C4.47715 0 0 4.47715 0 10C0 15.5228 4.47715 20 10 20ZM10 17C13.866 17 17 13.866 17 10C17 6.13401 13.866 3 10 3C6.13401 3 3 6.13401 3 10C3 13.866 6.13401 17 10 17Z" fill="#aab3f6"/></g><g transform="translate(169.4,169.4) scale(1.21) rotate(0)"><path fill-rule="evenodd" clip-rule="evenodd" d="M10 20C15.5228 20 20 15.5228 20 10C20 4.47715 15.5228 0 10 0C4.47715 0 0 4.47715 0 10C0 15.5228 4.47715 20 10 20ZM10 17C13.866 17 17 13.866 17 10C17 6.13401 13.866 3 10 3C6.13401 3 3 6.13401 3 10C3 13.866 6.13401 17 10 17Z" fill="#bac9ff"/></g><rect x="338.8" y="145.2" width="48.4" height="48.4" fill="#ffffff"/><rect x="48.4" y="193.6" width="48.4" height="48.4" fill="#ffffff"/><circle cx="84.69999999999999" cy="205.7" r="12.1" fill="#dee2fc"/><circle cx="84.69999999999999" cy="229.9" r="12.1" fill="#b1c2ff"/></g></svg>